<?xml version="1.0" encoding="UTF-8" standalone="no"?>
<!-- Created with Inkscape (http://www.inkscape.org/) -->

<svg
   width="92mm"
   height="92mm"
   viewBox="0 0 92 91.999995"
   version="1.1"
   id="svg5"
   inkscape:version="1.2.2 (b0a8486541, 2022-12-01)"
   sodipodi:docname="logo.svg"
   xmlns:inkscape="http://www.inkscape.org/namespaces/inkscape"
   xmlns:sodipodi="http://sodipodi.sourceforge.net/DTD/sodipodi-0.dtd"
   xmlns="http://www.w3.org/2000/svg"
   xmlns:svg="http://www.w3.org/2000/svg">
  <sodipodi:namedview
     id="namedview7"
     pagecolor="#ffffff"
     bordercolor="#000000"
     borderopacity="0.25"
     inkscape:showpageshadow="2"
     inkscape:pageopacity="0.0"
     inkscape:pagecheckerboard="0"
     inkscape:deskcolor="#d1d1d1"
     inkscape:document-units="mm"
     showgrid="false"
     inkscape:zoom="1.2938725"
     inkscape:cx="240.36372"
     inkscape:cy="433.19571"
     inkscape:window-width="3397"
     inkscape:window-height="1371"
     inkscape:window-x="0"
     inkscape:window-y="0"
     inkscape:window-maximized="1"
     inkscape:current-layer="layer1" />
  <defs
     id="defs2" />
  <g
     inkscape:label="Layer 1"
     inkscape:groupmode="layer"
     id="layer1">
    <ellipse
       style="fill:none;stroke:#ffffff;stroke-width:3.41674;stroke-dasharray:none;stroke-opacity:1"
       id="path1774"
       cx="46.030674"
       cy="45.827091"
       rx="43.29163"
       ry="43.291626" />
    <ellipse
       style="fill:none;stroke:#ffffff;stroke-width:3.498;stroke-dasharray:none;stroke-opacity:1"
       id="path1776"
       cx="37.215931"
       cy="53.168713"
       rx="5.1255817"
       ry="5.1255798" />
    <ellipse
       style="fill:none;stroke:#ffffff;stroke-width:3.498;stroke-dasharray:none;stroke-opacity:1"
       id="path1776-3"
       cx="55.732204"
       cy="52.654392"
       rx="5.1255817"
       ry="5.1255798" />
    <path
       style="fill:none;stroke:#ffffff;stroke-width:3.33;stroke-dasharray:none;stroke-opacity:1"
       d="m 37.100229,68.61981 c 2.467077,3.49139 16.053727,2.99933 17.940627,0.57077 1.88691,-2.42856 3.52543,-3.88025 -0.57536,-8.44284 -4.10079,-4.56259 -12.812174,-4.42473 -16.510262,0.40071 -2.02306,2.63978 -3.322082,3.97997 -0.855005,7.47136 z"
       id="path1807"
       sodipodi:nodetypes="sssss" />
    <path
       style="fill:none;stroke:#ffffff;stroke-width:3.33;stroke-dasharray:none;stroke-opacity:1"
       d="m 30.773325,29.088099 c 9.430334,3.221498 23.892881,2.523168 31.878811,0.489438 0,0 -2.52478,-13.8359 -5.51289,-18.133851 -1.38142,-1.9869708 -3.18238,-3.3942418 -6.52802,-1.6053538 -3.34564,1.7888878 -6.439333,0.2852288 -8.959301,-0.602289 -2.519968,-0.887519 -6.049509,-0.826204 -7.397887,2.6261968 -1.667741,4.270099 -2.320475,11.483906 -3.480713,17.225859 z"
       id="path2537"
       sodipodi:nodetypes="ccssssc" />
    <path
       style="fill:none;stroke:#ffffff;stroke-width:3.33;stroke-dasharray:none;stroke-opacity:1"
       d="m 42.614639,52.46461 c 3.311737,-1.61535 5.526167,-0.89154 7.654397,0.0161"
       id="path2539"
       sodipodi:nodetypes="cc" />
    <path
       style="fill:none;stroke:#ffffff;stroke-width:3.33;stroke-dasharray:none;stroke-opacity:1"
       d="m 31.064229,29.180892 c -11.180822,1.122884 -7.204147,4.859913 -3.012247,6.197178 5.636368,1.79806 29.469434,3.10656 37.037034,0.2411 9.4196,-3.566719 3.73711,-5.371821 -2.93379,-5.82601"
       id="path2543"
       sodipodi:nodetypes="cssc" />
    <path
       style="fill:none;stroke:#ffffff;stroke-width:3.33;stroke-dasharray:none;stroke-opacity:1"
       d="m 26.773746,30.137438 c -6.340167,-9.67819 -13.735056,-7.40224 -8.684016,7.271362 -7.109076,12.3015 -8.044821,28.57389 4.665525,37.86311 11.484369,8.39323 36.028061,8.2977 47.235671,0.0529 7.36566,-5.41849 14.96459,-15.98352 5.7944,-37.21948 6.26667,-15.258845 -3.42999,-17.766436 -10.19213,-7.830111"
       id="path2545"
       sodipodi:nodetypes="ccsscc" />
    <path
       style="fill:none;stroke:#ffffff;stroke-width:3.32999;stroke-dasharray:none;stroke-opacity:1"
       d="m 37.490521,69.58963 -6.919139,3.32739 c 7.333708,4.95367 11.702313,-0.0683 14.867964,-1.96051"
       id="path2547"
       sodipodi:nodetypes="ccc" />
    <path
       style="fill:none;stroke:#ffffff;stroke-width:3.32999;stroke-dasharray:none;stroke-opacity:1"
       d="m 56.613666,68.94326 7.39416,3.43471 c -7.33371,4.95367 -12.17846,0.74175 -15.34411,-1.15055"
       id="path2547-6"
       sodipodi:nodetypes="ccc" />
  </g>
</svg>
